<?xml version="1.0" encoding="UTF-8"?>
<svg xmlns="http://www.w3.org/2000/svg" version="1.1" viewBox="0 0 4096 4096">
  <defs>
    <style>
      .cls-1 {
        fill: #a3195b;
        font-family: Ravie, Ravie;
        font-size: 512.12px;
      }

      .cls-2 {
        fill: #dedc00;
        stroke: #951b81;
        stroke-miterlimit: 10;
        stroke-width: 20px;
      }
    </style>
  </defs>
  <!-- Generator: Adobe Illustrator 28.7.3, SVG Export Plug-In . SVG Version: 1.2.0 Build 164)  -->
  <g>
    <g id="Layer_1">
      <polygon class="cls-2" points="3549.27 2115.57 3742.78 2023 3549.27 1930.43 3691.06 1769.57 3476.57 1755.08 3557.71 1556.25 3347.65 1603.19 3378.89 1390.43 3182.76 1479.3 3176.13 1264.21 2996.04 1382.29 2959.88 1170.08 2795.95 1309.74 2735.6 1103.06 2587.64 1259.55 2506.59 1060.05 2374.53 1230.17 2275.15 1039.13 2159.11 1220.56 2043.07 1039.13 1943.69 1230.17 1811.63 1060.05 1730.58 1259.55 1582.61 1103.06 1522.27 1309.74 1358.34 1170.08 1322.18 1382.29 1142.09 1264.21 1135.47 1479.3 939.34 1390.42 970.58 1603.19 760.51 1556.24 841.65 1755.08 627.16 1769.56 768.95 1930.42 575.44 2023 768.95 2115.57 627.16 2276.43 841.65 2290.92 760.51 2489.75 970.57 2442.81 939.33 2655.57 1135.47 2566.7 1142.09 2781.79 1322.18 2663.71 1358.34 2875.92 1522.27 2736.26 1582.62 2942.94 1730.58 2786.45 1811.63 2985.95 1943.69 2815.83 2043.07 3006.87 2159.11 2825.44 2275.16 3006.87 2374.53 2815.83 2506.6 2985.95 2576.1 2814.87 3416.08 3541.02 3065.68 2709.37 3176.13 2781.79 3182.75 2566.7 3378.88 2655.58 3347.65 2442.81 3557.71 2489.76 3476.57 2290.92 3691.06 2276.44 3549.27 2115.57"/>
      <text class="cls-1" transform="translate(1029.05 2175.28) scale(.97 1)"><tspan x="0" y="0">Meow !</tspan></text>
      <g>
        <path class="cls-2" d="M415.4,386.98c-33.44-27.34-100.46-17.9-163.38,26.44-73.83,52.04-114.05,132.45-89.82,179.58,20.56,40,80.94,43.19,143.87,11.42,16.32-8.24,34.74-3.27,44.47,12.12,38.54,60.94,93.78,89.54,132.56,64.58,44.84-28.85,50.7-118.35,13.1-199.89-20.86-45.23-50.7-78.5-80.8-94.26Z"/>
        <path class="cls-2" d="M246.62,349.12c32.28-15.42,43.47-74.63,25-132.26-18.47-57.63-59.62-91.85-91.9-76.43s-43.47,74.63-25,132.26c18.47,57.63,59.62,91.85,91.9,76.43Z"/>
        <path class="cls-2" d="M382.31,301.35c33.52,4.76,69.67-41.99,80.74-104.4,11.07-62.41-7.14-116.87-40.67-121.62-33.52-4.76-69.67,41.99-80.74,104.4-11.07,62.41,7.14,116.87,40.67,121.62Z"/>
        <path class="cls-2" d="M512.09,327.09c23.99,25.32,75.73,7.46,115.58-39.9,39.85-47.36,52.7-106.28,28.72-131.61-23.99-25.32-75.73-7.46-115.58,39.9-39.85,47.36-52.7,106.28-28.72,131.61Z"/>
        <path class="cls-2" d="M756.22,356.16c-13.23-34.27-65.74-38.85-117.28-10.23-51.55,28.62-82.61,79.6-69.39,113.87,13.23,34.27,65.74,38.85,117.28,10.23,51.55-28.62,82.61-79.6,69.39-113.87Z"/>
      </g>
      <g>
        <path class="cls-2" d="M2716.8,3574.02c-42.92,4.9-82.89,59.51-94.98,135.53-14.19,89.21,15.39,174.1,66.07,189.61,43.01,13.16,87.39-27.89,108.51-95.15,5.48-17.44,21.88-27.17,39.7-23.42,70.56,14.88,129.57-4.77,138.73-49.97,10.59-52.26-49.46-118.87-134.13-148.79-46.96-16.59-91.62-18.41-123.91-7.82Z"/>
        <path class="cls-2" d="M2571.96,3668.59c11.46-33.89-23.18-83.2-77.36-110.15-54.19-26.95-107.4-21.32-118.86,12.56-11.46,33.89,23.18,83.2,77.36,110.15,54.19,26.95,107.4,21.32,118.86-12.56Z"/>
        <path class="cls-2" d="M2632.35,3538.02c26.79-20.71,18.5-79.21-18.52-130.67-37.02-51.46-88.74-76.38-115.53-55.67-26.79,20.71-18.5,79.21,18.52,130.67,37.02,51.46,88.74,76.38,115.53,55.67Z"/>
        <path class="cls-2" d="M2741.3,3462.96c34.88.47,58.16-49.08,52-110.66-6.16-61.59-39.42-111.89-74.3-112.36-34.88-.47-58.16,49.08-52,110.66,6.16,61.59,39.42,111.89,74.3,112.36Z"/>
        <path class="cls-2" d="M2932.39,3308.26c-33.78-14.42-73.68,20.02-89.12,76.93-15.43,56.9-.56,114.72,33.22,129.14,33.78,14.42,73.68-20.02,89.12-76.93,15.43-56.91.56-114.72-33.22-129.14Z"/>
      </g>
      <g>
        <path class="cls-2" d="M1952.31,434.89c-29.76-31.3-97.44-30.31-165.4,5.83-79.76,42.41-129.7,117.16-111.54,166.96,15.41,42.26,74.91,52.96,141.32,29.3,17.22-6.13,34.87,1.1,42.61,17.58,30.63,65.28,81.86,100.55,123.45,80.63,48.09-23.02,65.09-111.09,37.96-196.69-15.04-47.48-40.5-84.22-68.4-103.61Z"/>
        <path class="cls-2" d="M1789.58,376.25c33.95-11.27,52.45-68.62,41.32-128.1-11.13-59.48-47.68-98.57-81.63-87.31s-52.45,68.62-41.32,128.1c11.13,59.48,47.68,98.57,81.63,87.31Z"/>
        <path class="cls-2" d="M1930.17,345.8c32.67,8.91,74.37-32.95,93.14-93.5,18.77-60.54,7.51-116.84-25.16-125.75-32.67-8.91-74.37,32.95-93.14,93.5-18.77,60.54-7.51,116.84,25.16,125.75Z"/>
        <path class="cls-2" d="M2055.72,387.54c20.64,28.12,74.21,16.86,119.66-25.15,45.45-42.01,65.57-98.87,44.93-126.99-20.64-28.12-74.21-16.86-119.66,25.15-45.45,42.01-65.57,98.87-44.93,126.99Z"/>
        <path class="cls-2" d="M2294.31,446.88c-8.84-35.65-60.37-46.75-115.09-24.79-54.72,21.96-91.91,68.66-83.07,104.31,8.84,35.65,60.37,46.75,115.09,24.79,54.72-21.96,91.91-68.66,83.07-104.31Z"/>
      </g>
      <g>
        <path class="cls-2" d="M494.74,3664.05c-39.75-16.9-101.46,10.91-149.46,71.09-56.33,70.62-72.45,159.06-36,197.54,30.93,32.66,89.78,18.82,141.32-29.28,13.36-12.47,32.44-12.85,46.09-.8,54.05,47.73,115.08,59.73,145.33,24.93,34.98-40.24,15.58-127.8-43.33-195.58-32.67-37.59-70.64-61.19-103.94-67.89Z"/>
        <path class="cls-2" d="M322.1,3674.91c26.68-23.83,20.86-83.81-13-133.98-33.86-50.16-82.93-71.51-109.61-47.67-26.68,23.83-20.86,83.81,13,133.98,33.86,50.16,82.93,71.51,109.61,47.67Z"/>
        <path class="cls-2" d="M439.02,3591.09c33.52-4.81,55.15-59.8,48.31-122.82-6.83-63.02-39.55-110.21-73.06-105.39-33.52,4.81-55.15,59.8-48.31,122.82,6.83,63.02,39.55,110.21,73.06,105.39Z"/>
        <path class="cls-2" d="M570.81,3579.5c30.11,17.6,74.8-14.02,99.8-70.64,25.01-56.62,20.87-116.78-9.24-134.39-30.11-17.6-74.8,14.02-99.8,70.64-25.01,56.62-20.87,116.78,9.24,134.39Z"/>
        <path class="cls-2" d="M813.33,3539.12c-22.28-29.2-73.98-18.91-115.46,22.99-41.48,41.9-57.05,99.53-34.77,128.74,22.28,29.2,73.98,18.91,115.46-22.99,41.48-41.9,57.05-99.53,34.77-128.74Z"/>
      </g>
      <g>
        <path class="cls-2" d="M3693.99,1115.38c-32.37-28.6-99.7-21.73-164.27,20.18-75.77,49.18-119.03,127.99-96.62,176.02,19.02,40.76,79.23,46.25,143.33,16.91,16.62-7.61,34.84-1.94,43.97,13.82,36.19,62.37,90.28,93.06,129.99,69.6,45.91-27.12,55.19-116.32,20.73-199.25-19.11-45.99-47.67-80.38-77.14-97.28Z"/>
        <path class="cls-2" d="M3526.78,1071.1c32.85-14.17,46.29-72.92,30.04-131.21-16.26-58.29-56.06-94.06-88.91-79.89-32.85,14.17-46.29,72.92-30.04,131.21,16.26,58.29,56.06,94.06,88.91,79.89Z"/>
        <path class="cls-2" d="M3664.2,1028.55c33.32,6.03,71.23-39.29,84.67-101.24,13.44-61.95-2.67-117.06-35.99-123.09-33.32-6.03-71.23,39.29-84.67,101.24-13.44,61.95,2.67,117.06,35.99,123.09Z"/>
        <path class="cls-2" d="M3792.9,1059.23c23,26.22,75.39,10.35,117.02-35.46,41.63-45.8,56.73-104.19,33.73-130.41-23-26.22-75.39-10.35-117.02,35.46-41.63,45.8-56.73,104.19-33.73,130.41Z"/>
        <path class="cls-2" d="M4035.73,1097.61c-11.91-34.75-64.2-41.33-116.81-14.7-52.6,26.63-85.6,76.39-73.69,111.14,11.91,34.75,64.2,41.33,116.81,14.7,52.6-26.63,85.6-76.39,73.69-111.14Z"/>
      </g>
      <g>
        <path class="cls-2" d="M3634.24,3767.48c-39.75-16.9-101.46,10.91-149.46,71.09-56.33,70.62-72.45,159.06-36,197.54,30.93,32.66,89.78,18.82,141.32-29.28,13.36-12.47,32.44-12.85,46.09-.8,54.05,47.73,115.08,59.73,145.33,24.93,34.98-40.24,15.58-127.8-43.33-195.58-32.67-37.59-70.64-61.19-103.94-67.89Z"/>
        <path class="cls-2" d="M3461.6,3778.34c26.68-23.83,20.86-83.81-13-133.98-33.86-50.16-82.93-71.51-109.61-47.67-26.68,23.83-20.86,83.81,13,133.98,33.86,50.16,82.93,71.51,109.61,47.67Z"/>
        <path class="cls-2" d="M3578.52,3694.52c33.52-4.81,55.15-59.8,48.31-122.82-6.83-63.02-39.55-110.21-73.06-105.39-33.52,4.81-55.15,59.8-48.31,122.82,6.83,63.02,39.55,110.21,73.06,105.39Z"/>
        <path class="cls-2" d="M3710.31,3682.93c30.11,17.6,74.8-14.02,99.8-70.64,25.01-56.62,20.87-116.78-9.24-134.39-30.11-17.6-74.8,14.02-99.8,70.64-25.01,56.62-20.87,116.78,9.24,134.39Z"/>
        <path class="cls-2" d="M3952.83,3642.56c-22.28-29.2-73.98-18.91-115.46,22.99-41.48,41.9-57.05,99.53-34.77,128.74,22.28,29.2,73.98,18.91,115.46-22.99,41.48-41.9,57.05-99.53,34.77-128.74Z"/>
      </g>
      <g>
        <path class="cls-2" d="M3682.2,2894.78c-39.75-16.9-101.46,10.91-149.46,71.09-56.33,70.62-72.45,159.06-36,197.54,30.93,32.66,89.78,18.82,141.32-29.28,13.36-12.47,32.44-12.85,46.09-.8,54.05,47.73,115.08,59.73,145.33,24.93,34.98-40.24,15.58-127.8-43.33-195.58-32.67-37.59-70.64-61.19-103.94-67.89Z"/>
        <path class="cls-2" d="M3509.56,2905.64c26.68-23.83,20.86-83.81-13-133.98-33.86-50.16-82.93-71.51-109.61-47.67s-20.86,83.81,13,133.98c33.86,50.16,82.93,71.51,109.61,47.67Z"/>
        <path class="cls-2" d="M3626.48,2821.82c33.52-4.81,55.15-59.8,48.31-122.82-6.83-63.02-39.55-110.21-73.06-105.39-33.52,4.81-55.15,59.8-48.31,122.82,6.83,63.02,39.55,110.21,73.06,105.39Z"/>
        <path class="cls-2" d="M3758.27,2810.23c30.11,17.6,74.8-14.02,99.8-70.64,25.01-56.62,20.87-116.78-9.24-134.39-30.11-17.6-74.8,14.02-99.8,70.64-25.01,56.62-20.87,116.78,9.24,134.39Z"/>
        <path class="cls-2" d="M4000.79,2769.86c-22.28-29.2-73.98-18.91-115.46,22.99-41.48,41.9-57.05,99.53-34.77,128.74,22.28,29.2,73.98,18.91,115.46-22.99,41.48-41.9,57.05-99.53,34.77-128.74Z"/>
      </g>
      <g>
        <path class="cls-2" d="M3543.77,379.19c-39.75-16.9-101.46,10.91-149.46,71.09-56.33,70.62-72.45,159.06-36,197.54,30.93,32.66,89.78,18.82,141.32-29.28,13.36-12.47,32.44-12.85,46.09-.8,54.05,47.73,115.08,59.73,145.33,24.93,34.98-40.24,15.58-127.8-43.33-195.58-32.67-37.59-70.64-61.19-103.94-67.89Z"/>
        <path class="cls-2" d="M3371.13,390.06c26.68-23.83,20.86-83.81-13-133.98-33.86-50.16-82.93-71.51-109.61-47.67s-20.86,83.81,13,133.98c33.86,50.16,82.93,71.51,109.61,47.67Z"/>
        <path class="cls-2" d="M3488.04,306.24c33.52-4.81,55.15-59.8,48.31-122.82-6.83-63.02-39.55-110.21-73.06-105.39-33.52,4.81-55.15,59.8-48.31,122.82,6.83,63.02,39.55,110.21,73.06,105.39Z"/>
        <path class="cls-2" d="M3619.84,294.64c30.11,17.6,74.8-14.02,99.8-70.64,25.01-56.62,20.87-116.78-9.24-134.39-30.11-17.6-74.8,14.02-99.8,70.64s-20.87,116.78,9.24,134.39Z"/>
        <path class="cls-2" d="M3862.36,254.27c-22.28-29.2-73.98-18.91-115.46,22.99-41.48,41.9-57.05,99.53-34.77,128.74,22.28,29.2,73.98,18.91,115.46-22.99,41.48-41.9,57.05-99.53,34.77-128.74Z"/>
      </g>
      <g>
        <path class="cls-2" d="M1185.95,827.18c-39.75-16.9-101.46,10.91-149.46,71.09-56.33,70.62-72.45,159.06-36,197.54,30.93,32.66,89.78,18.82,141.32-29.28,13.36-12.47,32.44-12.85,46.09-.8,54.05,47.73,115.08,59.73,145.33,24.93,34.98-40.24,15.58-127.8-43.33-195.58-32.67-37.59-70.64-61.19-103.94-67.89Z"/>
        <path class="cls-2" d="M1013.31,838.04c26.68-23.83,20.86-83.81-13-133.98-33.86-50.16-82.93-71.51-109.61-47.67-26.68,23.83-20.86,83.81,13,133.98,33.86,50.16,82.93,71.51,109.61,47.67Z"/>
        <path class="cls-2" d="M1130.23,754.22c33.52-4.81,55.15-59.8,48.31-122.82-6.83-63.02-39.55-110.21-73.06-105.39-33.52,4.81-55.15,59.8-48.31,122.82,6.83,63.02,39.55,110.21,73.06,105.39Z"/>
        <path class="cls-2" d="M1262.02,742.63c30.11,17.6,74.8-14.02,99.8-70.64,25.01-56.62,20.87-116.78-9.24-134.39-30.11-17.6-74.8,14.02-99.8,70.64s-20.87,116.78,9.24,134.39Z"/>
        <path class="cls-2" d="M1504.54,702.26c-22.28-29.2-73.98-18.91-115.46,22.99-41.48,41.9-57.05,99.53-34.77,128.74,22.28,29.2,73.98,18.91,115.46-22.99,41.48-41.9,57.05-99.53,34.77-128.74Z"/>
      </g>
      <g>
        <path class="cls-2" d="M1762.24,3641.32c42.54-7.51,79.1-64.47,86.52-141.09,8.71-89.91-26.01-172.84-77.54-185.21-43.74-10.51-85.52,33.18-102.49,101.61-4.4,17.74-20.18,28.46-38.2,25.8-71.34-10.53-129.03,12.68-135.41,58.36-7.38,52.81,56.64,115.62,142.98,140.31,47.89,13.69,92.58,12.77,124.15.23Z"/>
        <path class="cls-2" d="M1901.02,3538.08c-9.37,34.52,28.22,81.63,83.95,105.22,55.73,23.58,108.51,14.72,117.87-19.81,9.37-34.52-28.22-81.63-83.95-105.22-55.73-23.58-108.51-14.72-117.87,19.81Z"/>
        <path class="cls-2" d="M1848.73,3672.09c-25.47,22.31-13.62,80.2,26.48,129.29,40.09,49.1,93.24,70.81,118.72,48.5,25.47-22.31,13.62-80.2-26.48-129.29-40.09-49.1-93.24-70.81-118.72-48.5Z"/>
        <path class="cls-2" d="M1744.58,3753.68c-34.84,1.66-55.05,52.54-45.14,113.64,9.91,61.1,46.19,109.27,81.03,107.61,34.84-1.66,55.05-52.54,45.14-113.64-9.91-61.1-46.19-109.27-81.03-107.61Z"/>
        <path class="cls-2" d="M1563.31,3919.77c34.6,12.33,72.32-24.49,84.25-82.23,11.93-57.74-6.46-114.54-41.06-126.87-34.6-12.33-72.32,24.49-84.25,82.23-11.93,57.74,6.46,114.54,41.06,126.87Z"/>
      </g>
      <g>
        <path class="cls-2" d="M423.65,1379.03c-42.59,7.21-79.55,63.91-87.52,140.47-9.35,89.85,24.78,173.02,76.22,185.76,43.66,10.82,85.76-32.57,103.21-100.88,4.53-17.71,20.38-28.32,38.38-25.53,71.26,11.04,129.12-11.77,135.82-57.39,7.75-52.75-55.81-116.02-141.98-141.32-47.79-14.03-92.49-13.43-124.15-1.11Z"/>
        <path class="cls-2" d="M284.14,1481.29c9.61-34.46-27.64-81.83-83.2-105.81-55.56-23.98-108.4-15.49-118.01,18.97-9.61,34.46,27.64,81.83,83.2,105.81,55.56,23.98,108.4,15.49,118.01-18.97Z"/>
        <path class="cls-2" d="M337.38,1347.65c25.63-22.13,14.19-80.1-25.56-129.48-39.74-49.38-92.74-71.47-118.37-49.34-25.63,22.13-14.19,80.1,25.56,129.48,39.74,49.38,92.74,71.47,118.37,49.34Z"/>
        <path class="cls-2" d="M442.11,1266.81c34.85-1.42,55.42-52.15,45.94-113.31-9.48-61.16-45.41-109.6-80.26-108.18-34.85,1.42-55.42,52.15-45.94,113.31s45.41,109.6,80.26,108.18Z"/>
        <path class="cls-2" d="M624.56,1102.01c-34.51-12.57-72.49,23.98-84.83,81.63-12.34,57.66,5.64,114.59,40.16,127.16,34.51,12.57,72.49-23.98,84.83-81.63,12.34-57.66-5.64-114.59-40.16-127.16Z"/>
      </g>
      <g>
        <path class="cls-2" d="M415.36,2602.63c-17.26-39.6-81.19-61.81-157.42-51.1-89.45,12.57-161.95,65.73-161.93,118.73.02,44.98,52.28,75.38,122.77,75.87,18.28.13,32.39,12.96,34.02,31.1,6.45,71.82,42.53,122.48,88.42,118,53.07-5.19,99.16-82.12,102.95-171.84,2.1-49.76-9.25-93-28.83-120.76Z"/>
        <path class="cls-2" d="M282.5,2491.86c35.76,1.03,72.76-46.54,82.65-106.24,9.89-59.7-11.08-108.94-46.84-109.97-35.76-1.03-72.76,46.54-82.65,106.24-9.89,59.7,11.08,108.94,46.84,109.97Z"/>
        <path class="cls-2" d="M425.03,2511.34c27.65,19.54,81.16-5.53,119.51-56,38.35-50.47,47.03-107.23,19.38-126.77-27.65-19.54-81.16,5.53-119.51,56-38.35,50.47-47.03,107.23-19.38,126.77Z"/>
        <path class="cls-2" d="M528.73,2593.51c9.77,33.48,63.96,41.23,121.04,17.29,57.08-23.93,95.43-70.48,85.66-103.96-9.77-33.48-63.96-41.23-121.04-17.29-57.08,23.93-95.43,70.48-85.66,103.96Z"/>
        <path class="cls-2" d="M732.63,2730.87c3.89-36.53-40.74-64.58-99.67-62.67-58.93,1.92-109.85,33.08-113.74,69.61-3.89,36.53,40.74,64.58,99.67,62.67,58.93-1.92,109.85-33.08,113.74-69.61Z"/>
      </g>
      <g>
        <path class="cls-2" d="M1109.47,3188.73c-39.75-16.9-101.46,10.91-149.46,71.09-56.33,70.62-72.45,159.06-36,197.54,30.93,32.66,89.78,18.82,141.32-29.28,13.36-12.47,32.44-12.85,46.09-.8,54.05,47.73,115.08,59.73,145.33,24.93,34.98-40.24,15.58-127.8-43.33-195.58-32.67-37.59-70.64-61.19-103.94-67.89Z"/>
        <path class="cls-2" d="M936.83,3199.59c26.68-23.83,20.86-83.81-13-133.98-33.86-50.16-82.93-71.51-109.61-47.67-26.68,23.83-20.86,83.81,13,133.98,33.86,50.16,82.93,71.51,109.61,47.67Z"/>
        <path class="cls-2" d="M1053.74,3115.77c33.52-4.81,55.15-59.8,48.31-122.82-6.83-63.02-39.55-110.21-73.06-105.39-33.52,4.81-55.15,59.8-48.31,122.82,6.83,63.02,39.55,110.21,73.06,105.39Z"/>
        <path class="cls-2" d="M1185.54,3104.18c30.11,17.6,74.8-14.02,99.8-70.64,25.01-56.62,20.87-116.78-9.24-134.39-30.11-17.6-74.8,14.02-99.8,70.64-25.01,56.62-20.87,116.78,9.24,134.39Z"/>
        <path class="cls-2" d="M1428.06,3063.81c-22.28-29.2-73.98-18.91-115.46,22.99-41.48,41.9-57.05,99.53-34.77,128.74,22.28,29.2,73.98,18.91,115.46-22.99,41.48-41.9,57.05-99.53,34.77-128.74Z"/>
      </g>
      <g>
        <path class="cls-2" d="M2791.42,696.55c-42.51,7.67-78.86,64.76-86,141.4-8.38,89.94,26.64,172.74,78.21,184.93,43.77,10.35,85.4-33.49,102.12-101.98,4.34-17.76,20.08-28.53,38.1-25.94,71.37,10.27,128.99-13.15,135.2-58.85,7.18-52.83-57.06-115.42-143.48-139.79-47.94-13.52-92.62-12.43-124.15.22Z"/>
        <path class="cls-2" d="M2653.01,800.31c9.24-34.56-28.52-81.53-84.33-104.91-55.82-23.38-108.56-14.32-117.8,20.24-9.24,34.56,28.52,81.53,84.33,104.91,55.82,23.38,108.56,14.32,117.8-20.24Z"/>
        <path class="cls-2" d="M2704.82,666.1c25.39-22.4,13.33-80.25-26.95-129.2-40.27-48.95-93.5-70.47-118.89-48.07-25.39,22.4-13.33,80.25,26.95,129.2,40.27,48.95,93.5,70.47,118.89,48.07Z"/>
        <path class="cls-2" d="M2808.67,584.14c34.83-1.79,54.86-52.74,44.72-113.8-10.13-61.06-46.59-109.1-81.42-107.31-34.83,1.79-54.86,52.74-44.72,113.8,10.13,61.06,46.59,109.1,81.42,107.31Z"/>
        <path class="cls-2" d="M2989.34,417.39c-34.65-12.2-72.23,24.75-83.95,82.54-11.72,57.79,6.87,114.52,41.52,126.72,34.65,12.2,72.23-24.75,83.95-82.54,11.72-57.79-6.87-114.52-41.52-126.72Z"/>
      </g>
    </g>
  </g>
</svg>